<?xml version="1.0" encoding="UTF-8"?>
<svg id="Layer_2" data-name="Layer 2" xmlns="http://www.w3.org/2000/svg" viewBox="0 0 100 95.11">
  <defs>
    <style>
      .cls-1 {
        fill: #fff;
      }
    </style>
  </defs>
  <g id="Layer_1-2" data-name="Layer 1">
    <g>
      <polygon class="cls-1" points="34.71 94.61 9.98 76.63 .53 47.55 9.98 18.47 34.71 .5 65.29 .5 90.02 18.47 99.48 47.55 90.02 76.63 65.29 94.61 34.71 94.61"/>
      <path d="M65.13,1l24.47,17.78,9.35,28.77-9.35,28.77-24.47,17.78h-30.25l-24.47-17.78L1.05,47.55l9.35-28.77L34.87,1h30.25M65.45,0h-30.9L9.55,18.16,0,47.55l9.55,29.39,25,18.16h30.9l25-18.16,9.55-29.39-9.55-29.39L65.45,0h0Z"/>
    </g>
  </g>
</svg>